PathFileType  4	(X/Y/Z) C:\Users\15086\Documents\NMBL_Research\NordBoard_Files\K_Nord_Zeroed\
DataRate	CameraRate	NumFrames	NumMarkers	Units	OrigDataRate	OrigDataStartFrame	OrigNumFrames
  200.0		  200.0		   5		     52		 mm	  200.0	      718	   1912
Frame#	Time	C7			R_Shoulder			L_Shoulder			Sternum			R_humerus			R_elbow_med			R_elbow_lat			R_forearm			R_wrist_radius			R_wrist_ulna			L_humerus			L_elbow_med			L_elbow_lat			L_forearm			L_wrist_radius			L_wrist_ulna			r.ASIS			r.PSIS			r_IC			L.ASIS			L.PSIS			l_IC			r_thigh1			r_thigh2			r_thigh3			r_thigh4			r_thigh5			r_knee			r_mknee			r_shank_antsup			r_sh2			r_sh3			r_sh4			r_ankle			r_mankle			r_calc			r_5meta			r_toe			L_thigh1			L_thigh2			L_thigh3			L_thigh4			L_knee			L_mknee			L_shank_antsup			L_sh2			L_sh3			L_ankle			L_mankle			L_calc			L_5meta			L_toe			
		X1	Y1	Z1	X2	Y2	Z2	X3	Y3	Z3	X4	Y4	Z4	X5	Y5	Z5	X6	Y6	Z6	X7	Y7	Z7	X8	Y8	Z8	X9	Y9	Z9	X10	Y10	Z10	X11	Y11	Z11	X12	Y12	Z12	X13	Y13	Z13	X14	Y14	Z14	X15	Y15	Z15	X16	Y16	Z16	X17	Y17	Z17	X18	Y18	Z18	X19	Y19	Z19	X20	Y20	Z20	X21	Y21	Z21	X22	Y22	Z22	X23	Y23	Z23	X24	Y24	Z24	X25	Y25	Z25	X26	Y26	Z26	X27	Y27	Z27	X28	Y28	Z28	X29	Y29	Z29	X30	Y30	Z30	X31	Y31	Z31	X32	Y32	Z32	X33	Y33	Z33	X34	Y34	Z34	X35	Y35	Z35	X36	Y36	Z36	X37	Y37	Z37	X38	Y38	Z38	X39	Y39	Z39	X40	Y40	Z40	X41	Y41	Z41	X42	Y42	Z42	X43	Y43	Z43	X44	Y44	Z44	X45	Y45	Z45	X46	Y46	Z46	X47	Y47	Z47	X48	Y48	Z48	X49	Y49	Z49	X50	Y50	Z50	X51	Y51	Z51	X52	Y52	Z52	

718	3.58500	1230.718	1241.995	-566.991	1347.730	1237.873	-617.460	1096.427	1248.209	-592.121	1213.708	1163.635	-678.827	1511.199	1209.711	-551.268	1641.929	1135.287	-578.896	1625.830	1187.182	-512.950	1625.443	1279.211	-598.738	1577.872	1321.567	-714.284	1637.353	1349.220	-687.514	950.016	1212.348	-490.215	792.317	1154.892	-513.848	821.204	1219.176	-457.290	840.129	1292.540	-528.501	846.397	1357.491	-635.509	917.413	1334.951	-630.049	1343.311	712.326	-529.053	1310.949	862.368	-404.138	1388.180	822.850	-497.206	1114.559	708.147	-499.932	1196.758	864.567	-389.802	1083.597	816.572	-487.939	1363.670	488.286	-462.019	1356.937	378.940	-422.668	1394.037	360.455	-385.116	1422.128	515.706	-374.922	1410.480	405.051	-337.784	1394.813	304.429	-312.200	1271.045	308.181	-298.757	1419.162	308.735	-206.545	1427.198	318.945	-84.871	1423.467	386.291	-210.248	1414.669	399.228	-93.833	1426.672	363.109	74.710	1349.314	343.219	75.871	1361.877	435.503	79.878	1429.676	299.390	194.715	1391.040	251.006	180.646	1038.783	536.438	-399.339	1029.820	404.775	-351.283	1050.559	580.020	-288.662	1060.727	447.624	-246.250	1032.919	337.715	-263.288	1160.692	309.795	-266.119	1026.045	322.355	-164.815	1039.891	410.504	-173.316	1048.564	410.840	-51.501	1083.079	378.589	111.376	1157.482	349.879	102.263	1127.167	436.330	115.556	1106.510	298.373	243.124	1140.855	255.739	216.125
719	3.59000	1230.695	1242.017	-567.160	1347.660	1237.540	-617.437	1096.380	1248.163	-592.336	1213.663	1163.569	-678.989	1511.111	1209.606	-551.348	1641.881	1135.228	-579.018	1625.813	1187.205	-513.098	1625.384	1279.139	-598.941	1577.848	1321.404	-714.534	1637.277	1349.100	-687.749	949.939	1212.266	-490.332	792.297	1154.802	-514.051	821.123	1219.112	-457.529	840.062	1292.414	-528.748	846.432	1357.446	-635.768	917.383	1334.834	-630.303	1343.321	712.311	-529.084	1310.927	862.395	-404.190	1388.169	822.839	-497.217	1114.545	708.111	-499.965	1196.745	864.551	-389.867	1083.592	816.546	-488.011	1363.675	488.298	-462.054	1356.911	378.932	-422.702	1394.089	360.503	-385.102	1422.131	515.711	-374.897	1410.610	405.209	-337.793	1394.410	304.245	-312.387	1271.044	308.196	-298.771	1419.158	308.775	-206.551	1427.225	318.970	-84.858	1423.440	386.287	-210.263	1414.742	399.311	-93.875	1426.654	363.158	74.713	1349.363	343.118	75.894	1361.886	435.472	79.881	1429.678	299.402	194.690	1391.021	251.101	180.613	1038.774	536.428	-399.316	1029.855	404.781	-351.322	1050.525	580.014	-288.782	1060.739	447.639	-246.259	1032.897	337.694	-263.289	1160.686	309.767	-266.097	1026.015	322.353	-164.820	1039.878	410.559	-173.331	1048.532	410.799	-51.526	1083.033	378.640	111.336	1157.438	349.919	102.294	1127.112	436.338	115.578	1106.479	298.323	243.133	1140.790	255.797	216.128
720	3.59500	1230.699	1242.029	-567.293	1347.636	1237.521	-617.583	1096.346	1248.086	-592.513	1213.604	1163.497	-679.117	1511.085	1209.549	-551.538	1641.844	1135.158	-579.131	1625.766	1187.171	-513.243	1625.338	1279.074	-599.123	1577.825	1321.246	-714.744	1637.197	1348.991	-687.976	949.854	1212.219	-490.552	792.262	1154.686	-514.226	821.055	1219.032	-457.742	840.003	1292.334	-529.038	846.393	1357.271	-636.037	917.628	1334.806	-630.252	1343.336	712.265	-529.104	1310.924	862.371	-404.258	1388.183	822.812	-497.261	1114.562	708.044	-500.062	1196.731	864.537	-389.932	1083.600	816.525	-488.119	1363.709	488.324	-462.091	1356.900	378.965	-422.704	1394.064	360.502	-385.095	1422.126	515.715	-374.880	1410.479	405.086	-337.803	1394.405	304.224	-312.385	1271.071	308.179	-298.779	1419.152	308.800	-206.545	1427.179	319.009	-84.866	1423.427	386.346	-210.266	1414.508	399.276	-93.862	1426.663	363.139	74.713	1349.291	343.256	75.859	1361.886	435.518	79.909	1429.683	299.399	194.718	1391.019	251.019	180.655	1038.808	536.398	-399.387	1029.822	404.795	-351.339	1050.534	580.049	-288.714	1060.732	447.647	-246.288	1032.892	337.723	-263.272	1160.661	309.738	-266.170	1026.014	322.360	-164.820	1039.862	410.580	-173.330	1049.103	410.121	-51.211	1082.971	378.583	111.399	1157.414	349.915	102.281	1127.058	436.326	115.594	1106.407	298.370	243.168	1140.767	255.783	216.128
721	3.60000	1230.699	1242.045	-567.459	1347.644	1237.445	-617.743	1096.289	1248.031	-592.648	1213.517	1163.443	-679.266	1511.082	1209.488	-551.650	1641.821	1135.081	-579.240	1625.729	1186.907	-513.668	1625.279	1278.975	-599.329	1577.793	1321.135	-714.960	1637.143	1348.942	-688.251	949.827	1212.104	-490.739	792.230	1154.566	-514.430	820.980	1218.933	-457.960	839.928	1292.110	-529.260	846.299	1357.220	-636.197	917.605	1334.677	-630.495	1343.365	712.250	-529.154	1310.925	862.346	-404.327	1388.220	822.780	-497.320	1114.562	708.037	-500.073	1196.733	864.528	-390.003	1083.616	816.487	-488.207	1363.737	488.298	-462.096	1356.903	378.941	-422.719	1394.065	360.510	-385.126	1422.130	515.739	-374.942	1410.454	405.066	-337.823	1394.429	304.215	-312.400	1271.048	308.194	-298.774	1419.127	308.781	-206.566	1427.169	319.011	-84.847	1423.430	386.366	-210.249	1414.802	399.419	-93.870	1426.691	363.101	74.711	1349.320	343.093	75.868	1361.849	435.510	79.910	1429.694	299.367	194.715	1391.142	251.047	180.570	1038.750	536.396	-399.356	1029.823	404.793	-351.315	1050.533	580.034	-288.780	1060.727	447.671	-246.284	1032.880	337.697	-263.270	1160.642	309.692	-266.211	1025.995	322.395	-164.809	1039.853	410.612	-173.347	1048.546	410.842	-51.496	1082.945	378.610	111.364	1157.383	349.891	102.304	1127.009	436.293	115.602	1106.400	298.277	243.145	1140.718	255.749	216.169
722	3.60500	1230.651	1241.983	-567.583	1347.628	1237.386	-617.894	1095.854	1247.324	-593.143	1213.494	1163.344	-679.391	1511.059	1209.478	-551.789	1641.794	1134.994	-579.370	1625.711	1186.860	-513.816	1625.247	1278.910	-599.510	1577.852	1320.946	-714.890	1637.121	1348.841	-688.456	949.802	1212.000	-490.937	792.183	1154.454	-514.615	820.928	1218.844	-458.159	839.900	1292.059	-529.468	846.405	1356.853	-636.605	917.561	1334.535	-630.700	1343.393	712.189	-529.214	1310.976	862.249	-404.404	1388.239	822.693	-497.361	1114.562	707.918	-500.142	1196.736	864.463	-390.091	1083.617	816.453	-488.272	1363.761	488.287	-462.068	1357.436	378.907	-423.310	1394.092	360.494	-385.134	1422.148	515.720	-374.956	1410.459	405.084	-337.844	1394.451	304.168	-312.403	1271.068	308.203	-298.757	1419.143	308.797	-206.575	1427.160	319.002	-84.874	1423.425	386.348	-210.255	1414.727	399.324	-93.847	1426.711	363.006	74.705	1349.295	343.187	75.889	1361.903	435.434	79.907	1429.717	299.262	194.705	1391.290	250.952	180.488	1038.784	536.386	-399.404	1029.792	404.808	-351.312	1050.555	580.012	-288.789	1060.714	447.683	-246.299	1032.897	337.723	-263.262	1160.632	309.725	-266.199	1025.977	322.401	-164.802	1039.893	410.566	-173.366	1048.472	410.856	-51.501	1082.909	378.584	111.338	1157.399	349.764	102.299	1126.967	436.242	115.602	1106.316	298.282	243.141	1140.660	255.697	216.179
